<?xml version="1.0" encoding="UTF-8"?>
<svg id="sailboat" xmlns="http://www.w3.org/2000/svg" viewBox="0 0 1024 768">
  <defs>
    <style>
      .cls-1 {
        fill: #2e3192;
      }

      .cls-1, .cls-2, .cls-3, .cls-4 {
        stroke: #000;
        stroke-miterlimit: 10;
      }

      .cls-2 {
        fill: none;
      }

      .cls-3 {
        fill: #00a99d;
      }

      .cls-4 {
        fill: #0071bc;
      }

      .cls-5 {
        fill: #81d4f7;
      }
    </style>
  </defs>
  <g id="beams">
    <path class="cls-3" d="M579.52,489.33c-79.72-4.08-159.6-15.12-237.47-32.63-1.85-2.73-2.97-10.04-.31-10.41,77.88,17.52,157.55,27.81,237.26,31.9"/>
    <path class="cls-3" d="M580.98,515.37c-6.5-104.51-5.11-211.88,3.34-316.25,3.52-2.29,9.2-3.02,11.5,.5-8.42,103.99-9.34,209.96-2.83,314.67"/>
    <path class="cls-3" d="M592.51,506.34c44.75-7.75,91.5-13.82,136.71-18.16,1.56,1.05,1.77,3.39,.99,5.1-45.21,4.33-92.6,10.47-137.35,18.22"/>
  </g>
  <path id="boat" class="cls-4" d="M314.74,583.07c-20.88-14.33-31.38-37.31-33.02-65.27,59.73,8.2,120.36,6.86,180.61,4.47,82.94-3.29,162.71-8.13,244.24-23.68-3.11,29.94-21.16,64.35-36.95,84.48"/>
  <g id="ropes">
    <path class="cls-2" d="M728.01,488.18c-5.34-9.75-10.68-19.51-16.01-29.26"/>
    <path class="cls-2" d="M616.5,457.13c-10.21,14.59-19.48,31.97-24,49.2"/>
    <path class="cls-2" d="M347.05,457.91c-17.73,20.49-35.46,40.93-53.19,61.42"/>
  </g>
  <g id="sails">
    <path class="cls-1" d="M616.5,457.13c34.6-6.93,61.09-8.4,95.49,1.79h0c-40.17-73.49-79.97-147.02-118.92-221.2,10.61,22.18,22.17,45.99,28.1,69.85,12.11,48.79,3.94,100.04-4.66,149.56Z"/>
    <path class="cls-1" d="M579,478.19c-70.77-2.51-145.4-12.51-213.3-32.62,93.65-75.84,160.7-184.37,191-301,11,47,12,86,16,134,3.93,47.1,3.22,136.83,6.3,199.62Z"/>
  </g>
  <g id="waves">
    <path id="head" class="cls-5" d="M728.79,603.07l8.68-38.06c-27.1-2.44-46.27-13.62-66.81-31.47-5.26,9.3-11.4,18.28-19.58,25.14-8.18,6.87-29.52,11.49-40.19,11.05v33.34"/>
    <path id="mid-2" class="cls-5" d="M570.49,603.07v-24.98c-14.99,2.4-30.75,3.92-45.01-1.27-14.27-5.18-26.49-18.89-25.24-34.02-10.11,10.26-21.54,19.2-33.93,26.53-7,4.14-14.44,7.82-22.46,9.18-8.02,1.36-16.75,.17-23.28-4.68v29.23"/>
    <path id="mid-1" class="cls-5" d="M476.74,603.07v-22.38c-15.69,.46-31.74-.73-46.24-6.74-14.5-6.01-27.35-17.4-32.2-32.33-2.68,12.04-11.18,22.64-22.34,27.89s-24.75,5.02-35.73-.59v34.15"/>
    <path id="tail" class="cls-5" d="M398.03,603.07v-38.86c-26.54,11.78-69.91,8.73-84.52-18.45-7.97,8.72-12.69,18.73-27.03,23.23-6.78,2.13-18.44,3.35-30.92-.69l7.8,36.17"/>
    <path id="mid-3" class="cls-5" d="M667.35,603.07v-30.33c-3.9,2.15-11.65,2.83-17.08,2.36-26.63-2.32-55.17-13.66-66.48-37.87-15.22,21.49-39.99,35.95-66.19,38.64v27.21"/>
  </g>
</svg>