<?xml version="1.0" encoding="UTF-8"?>
<svg id="Layer_1" data-name="Layer 1" xmlns="http://www.w3.org/2000/svg" viewBox="0 0 1024 768">
  <defs>
    <style>
      .cls-1 {
        fill: none;
        stroke: #000;
        stroke-miterlimit: 10;
      }
    </style>
  </defs>
  <path class="cls-1" d="M298.81,592.33c-10.31-18.83-12.64-26.17-17.3-47.6"/>
  <path class="cls-1" d="M706.22,525.54c-5.11,22.46-12.94,44.31-23.26,64.9"/>
  <path class="cls-1" d="M233.72,593.83c12.08,8.41,28.95,8.89,43.38,4.68,14.42-4.21,23.93-17.66,36.21-25.82,20.59,19.47,57.98,30.23,84.52,18.45"/>
  <path class="cls-1" d="M621.58,596.66c10.67,.44,21.12-4.18,29.3-11.05,8.18-6.87,14.32-15.84,19.58-25.14,20.54,17.85,46.79,29.03,73.89,31.47"/>
  <path class="cls-1" d="M340.03,595.85c10.98,5.61,24.57,5.84,35.73,.59s19.66-15.85,22.34-27.89c4.85,14.93,17.7,26.32,32.2,32.33,14.5,6.01,30.55,7.2,46.24,6.74"/>
  <path class="cls-1" d="M420.36,600.77c6.53,4.85,15.26,6.04,23.28,4.68,8.02-1.36,15.46-5.04,22.46-9.18,12.39-7.33,23.83-16.28,33.93-26.53-1.25,15.13,10.97,28.83,25.24,34.02,14.27,5.18,30.02,3.67,45.01,1.27"/>
  <path class="cls-1" d="M517.4,602.79c26.2-2.69,50.97-17.15,66.19-38.64,11.31,24.22,39.85,35.55,66.48,37.87,5.44,.47,11,.69,16.09,2.65"/>
  <path class="cls-1" d="M706.5,525.5c-81.53,15.55-161.44,20.41-244.38,23.7-60.25,2.39-120.87,3.73-180.61-4.47"/>
  <path class="cls-1" d="M580.78,541.69c-6.5-104.51-5.12-211.27,3.34-315.64"/>
  <path class="cls-1" d="M592.79,540.45c-6.5-104.51-5.63-209.53,2.83-313.9"/>
  <path class="cls-1" d="M579.16,516.24c-79.72-4.08-159.44-15.09-237.31-32.61"/>
  <path class="cls-1" d="M578.81,505.12c-79.72-4.08-160.73-14.68-238.61-32.2"/>
  <path class="cls-1" d="M341.85,483.63c-1.85-2.73-2.76-7.61-1.65-10.71"/>
  <path class="cls-1" d="M584.12,226.06c3.52-2.29,9.2-3.02,11.5,.5"/>
  <path class="cls-1" d="M578.81,505.12c-2.25-62.9-2.38-152.51-6.31-199.62-4-48-5-87-16-134"/>
  <path class="cls-1" d="M556.5,171.5c-30.3,116.63-97.35,225.16-191,301"/>
  <path class="cls-1" d="M592.79,538.42c44.75-7.75,89.83-13.87,135.04-18.2"/>
  <path class="cls-1" d="M592.42,533.27c44.75-7.75,91.39-13.82,136.6-18.15"/>
  <path class="cls-1" d="M729.02,515.12c1.56,1.05,1.77,3.39,.99,5.1"/>
  <path class="cls-1" d="M616.3,484.07c34.6-6.93,60.9-8.4,95.3,1.79"/>
  <path class="cls-1" d="M592.94,264.96c10.61,22.18,22.11,45.68,28.03,69.55,12.11,48.79,3.94,100.04-4.66,149.56"/>
  <path class="cls-1" d="M592.94,264.96c44.12,84.03,89.27,166.92,134.87,250.15"/>
  <path class="cls-1" d="M616.3,484.07c-10.21,14.59-19.36,31.97-23.88,49.2"/>
  <path class="cls-1" d="M346.85,484.85c-17.73,20.49-35.3,40.74-53.03,61.23"/>
  <path class="cls-1" d="M578.81,505.12c-70.77-2.51-145.41-12.5-213.31-32.62"/>
</svg>