<?xml version="1.0" encoding="UTF-8"?>
<svg id="Layer_1" data-name="Layer 1" xmlns="http://www.w3.org/2000/svg" xmlns:xlink="http://www.w3.org/1999/xlink" viewBox="0 0 1024 700">
  <defs>
    <style>
      .cls-1 {
        fill: #fff;
      }

      .cls-2 {
        fill: none;
      }

      .cls-2, .cls-3, .cls-4, .cls-5, .cls-6, .cls-7, .cls-8 {
        stroke: #000;
        stroke-miterlimit: 10;
      }

      .cls-3 {
        fill: gray;
      }

      .cls-4 {
        fill: #999;
      }

      .cls-5 {
        fill: #666;
      }

      .cls-6 {
        fill: url(#linear-gradient);
      }

      .cls-7 {
        fill: url(#linear-gradient-2);
      }

      .cls-8 {
        fill: #dccec5;
      }
    </style>
    <linearGradient id="linear-gradient" x1="512" y1="0" x2="512" y2="496" gradientUnits="userSpaceOnUse">
      <stop offset="0" stop-color="#c8c5bc"/>
      <stop offset="1" stop-color="#000"/>
    </linearGradient>
    <linearGradient id="linear-gradient-2" x1="512.58" y1="80.42" x2="512.58" y2="576.42" gradientUnits="userSpaceOnUse">
      <stop offset="0" stop-color="#a67c52"/>
      <stop offset=".41" stop-color="#9f754b"/>
      <stop offset="1" stop-color="#8c6239"/>
      <stop offset="1" stop-color="#8c6239"/>
    </linearGradient>
  </defs>
  <rect class="cls-6" x="0" width="1024" height="496"/>
  <rect class="cls-7" x=".58" y="80.42" width="1024" height="496"/>
  <rect class="cls-5" x="322.17" y="140.77" width="42.82" height="447.65"/>
  <rect class="cls-5" x="660.17" y="140.77" width="42.82" height="447.65"/>
  <rect class="cls-8" x=".58" y="576.42" width="1023.17" height="123.58"/>
  <rect class="cls-5" x=".58" y="140.77" width="27.25" height="447.65"/>
  <rect class="cls-5" x="996.33" y="140.77" width="27.25" height="447.65"/>
  <g>
    <rect class="cls-3" x=".58" y="576.42" width="1023.17" height="24"/>
    <polygon class="cls-4" points="1023.75 576.42 .58 576.42 17.15 563.92 343.58 563.92 343.58 563.42 681.25 563.42 681.25 562.92 1007.96 562.92 1023.75 576.42"/>
    <polygon class="cls-4" points=".58 563.92 17.08 563.92 .58 576.42 .58 563.92"/>
  </g>
  <polygon class="cls-4" points="1023.58 562.9 1008.74 562.92 1023.58 576.42 1023.58 562.9"/>
  <g>
    <rect class="cls-3" x=".5" y="475.5" width="1023.17" height="24"/>
    <polygon class="cls-4" points="1023.67 475.5 .5 475.5 17.06 463 343.5 463 343.5 462.5 681.17 462.5 681.17 462 1007.88 462 1023.67 475.5"/>
    <polygon class="cls-4" points=".5 463 17 463 .5 475.5 .5 463"/>
  </g>
  <polygon class="cls-4" points="1023.5 461.98 1008.65 462 1023.5 475.5 1023.5 461.98"/>
  <g>
    <rect class="cls-3" x=".5" y="374.05" width="1023.17" height="24"/>
    <polygon class="cls-4" points="1023.67 374.05 .5 374.05 17.06 361.55 343.5 361.55 343.5 361.05 681.17 361.05 681.17 360.55 1007.88 360.55 1023.67 374.05"/>
    <polygon class="cls-4" points=".5 361.55 17 361.55 .5 374.05 .5 361.55"/>
  </g>
  <polygon class="cls-4" points="1023.5 360.53 1008.65 360.55 1023.5 374.05 1023.5 360.53"/>
  <g>
    <rect class="cls-3" x=".5" y="272.61" width="1023.17" height="24"/>
    <polygon class="cls-4" points="1023.67 272.61 .5 272.61 17.06 260.11 343.5 260.11 343.5 259.61 681.17 259.61 681.17 259.11 1007.88 259.11 1023.67 272.61"/>
    <polygon class="cls-4" points=".5 260.11 17 260.11 .5 272.61 .5 260.11"/>
  </g>
  <polygon class="cls-4" points="1023.5 259.09 1008.65 259.11 1023.5 272.61 1023.5 259.09"/>
  <rect class="cls-3" x="669.25" y="154.42" width="24" height="460"/>
  <rect class="cls-3" x=".58" y="154.42" width="12" height="460"/>
  <rect class="cls-3" x="331.92" y="154.42" width="24" height="460"/>
  <rect class="cls-3" x="1011.58" y="154.42" width="12" height="460"/>
  <g>
    <g>
      <path class="cls-1" d="M115.59,686.72c-17.4,0-31.56-14.16-31.56-31.56s14.16-31.56,31.56-31.56,31.56,14.16,31.56,31.56-14.16,31.56-31.56,31.56Z"/>
      <path d="M115.59,624.1c17.13,0,31.06,13.93,31.06,31.06s-13.93,31.06-31.06,31.06-31.06-13.93-31.06-31.06,13.93-31.06,31.06-31.06m0-1c-17.71,0-32.06,14.35-32.06,32.06s14.35,32.06,32.06,32.06,32.06-14.35,32.06-32.06-14.35-32.06-32.06-32.06h0Z"/>
    </g>
    <path class="cls-2" d="M60.52,619.7c-4.53,0-6.96-.28-9.72-4.75s-2.38-10.32-.31-15.15,5.6-8.85,9.07-12.79c9.39-10.64,18.79-21.27,28.18-31.91"/>
    <path class="cls-2" d="M213.66,619.7c-4.53,0-6.96-.28-9.72-4.75s-2.38-10.32-.31-15.15,5.6-8.85,9.07-12.79c9.39-10.64,18.78-21.27,28.16-31.91"/>
    <path class="cls-2" d="M109.38,656.3l-17.25-36.6h46.92s-17.25,36.6-17.25,36.6c-2.48,5.25-9.95,5.25-12.43,0Z"/>
    <g>
      <path class="cls-1" d="M326.81,686.72c-17.4,0-31.56-14.16-31.56-31.56s14.16-31.56,31.56-31.56,31.56,14.16,31.56,31.56-14.16,31.56-31.56,31.56Z"/>
      <path d="M326.81,624.1c17.13,0,31.06,13.93,31.06,31.06s-13.93,31.06-31.06,31.06-31.06-13.93-31.06-31.06,13.93-31.06,31.06-31.06m0-1c-17.71,0-32.06,14.35-32.06,32.06s14.35,32.06,32.06,32.06,32.06-14.35,32.06-32.06-14.35-32.06-32.06-32.06h0Z"/>
    </g>
    <path class="cls-2" d="M320.6,656.3l-17.25-36.6h46.92s-17.25,36.6-17.25,36.6c-2.48,5.25-9.95,5.25-12.43,0Z"/>
    <line class="cls-2" x1="60.52" y1="619.7" x2="399.99" y2="619.7"/>
    <line class="cls-2" x1="87.73" y1="555.12" x2="380.44" y2="555.12"/>
    <line class="cls-2" x1="87.73" y1="555.12" x2="68.29" y2="425.02"/>
    <line class="cls-2" x1="380.44" y1="555.12" x2="380.44" y2="441"/>
    <line class="cls-2" x1="68.29" y1="425.02" x2="380.44" y2="441"/>
    <path class="cls-2" d="M35.94,406.37c4.35,0,7.31,0,11.54,.39,3.49,.32,7.52,.98,10.58,2.67,5.6,3.08,8.11,9.56,10.22,15.59"/>
  </g>
</svg>