<?xml version="1.0" encoding="UTF-8"?>
<svg id="computer" xmlns="http://www.w3.org/2000/svg" xmlns:xlink="http://www.w3.org/1999/xlink" viewBox="0 0 365.5 700">
  <defs>
    <style>
      .cls-1 {
        fill: #6b503f;
      }

      .cls-1, .cls-2, .cls-3, .cls-4, .cls-5, .cls-6, .cls-7, .cls-8, .cls-9, .cls-10, .cls-11 {
        stroke: #000;
        stroke-miterlimit: 10;
      }

      .cls-2 {
        fill: #a67c52;
      }

      .cls-3 {
        fill: #ccc;
      }

      .cls-4 {
        fill: #a58470;
      }

      .cls-5 {
        fill: #8d6a5b;
      }

      .cls-6 {
        fill: url(#Dark_Sky_Gradient);
      }

      .cls-7 {
        fill: url(#linear-gradient);
      }

      .cls-8 {
        fill: #fff;
      }

      .cls-9 {
        fill: #e8d2c6;
      }

      .cls-10 {
        fill: #b39080;
      }

      .cls-11 {
        fill: #cfb3a5;
      }
    </style>
    <linearGradient id="Dark_Sky_Gradient" data-name="Dark Sky Gradient" x1="183.3" y1="0" x2="183.3" y2="700" gradientUnits="userSpaceOnUse">
      <stop offset="0" stop-color="#c8c5bc"/>
      <stop offset="1" stop-color="#000"/>
    </linearGradient>
    <linearGradient id="linear-gradient" x1="182.75" y1="183.96" x2="182.75" y2="472.88" gradientUnits="userSpaceOnUse">
      <stop offset="0" stop-color="#003031"/>
      <stop offset="1" stop-color="#2e6590"/>
    </linearGradient>
  </defs>
  <rect id="background" class="cls-6" x=".99" width="364.61" height="700"/>
  <g id="window">
    <path id="frame" class="cls-2" d="M71.37,174.18V482.67h222.75V174.18H71.37Zm212.65,298.7H81.48V183.96h202.54V472.88Z"/>
    <rect id="outside" class="cls-7" x="81.48" y="183.96" width="202.54" height="288.92"/>
  </g>
  <g id="table">
    <rect class="cls-5" x="81.48" y="591.2" width="14.4" height="108.8"/>
    <rect class="cls-1" x="95.88" y="591.2" width="5.55" height="108.8"/>
    <rect class="cls-1" x="265.03" y="591.2" width="5.55" height="108.8"/>
    <rect class="cls-5" x="270.59" y="591.2" width="13.44" height="108.8"/>
    <polygon class="cls-9" points="351.81 559.67 13.69 559.67 64.88 510.7 300.62 510.7 351.81 559.67"/>
    <rect class="cls-11" x="13.69" y="559.67" width="338.11" height="31.53"/>
    <rect class="cls-10" x="44.4" y="591.2" width="31.53" height="108.8"/>
    <rect class="cls-4" x="75.93" y="591.2" width="5.55" height="108.8"/>
    <rect class="cls-4" x="284.02" y="591.2" width="5.55" height="108.8"/>
    <rect class="cls-10" x="289.58" y="591.2" width="31.53" height="108.8"/>
  </g>
  <g id="laptop">
    <polygon class="cls-3" points="243.09 536.52 122.41 536.52 140.68 519.04 224.82 519.04 243.09 536.52"/>
    <rect class="cls-3" x="122.41" y="536.52" width="120.68" height="6.51"/>
    <path class="cls-3" d="M140.67,469.59v49.45h84.15v-49.45h-84.15Zm80.54,45.65h-76.92v-41.86h76.92v41.86Z"/>
    <rect id="screen" class="cls-8" x="144.29" y="473.38" width="76.92" height="41.86"/>
  </g>
</svg>