<?xml version="1.0" encoding="UTF-8"?>
<svg id="dining" xmlns="http://www.w3.org/2000/svg" xmlns:xlink="http://www.w3.org/1999/xlink" viewBox="0 0 365.5 700">
  <defs>
    <style>
      .cls-1 {
        fill: #a67c52;
      }

      .cls-1, .cls-2, .cls-3, .cls-4, .cls-5, .cls-6, .cls-7 {
        stroke: #000;
        stroke-miterlimit: 10;
      }

      .cls-2 {
        fill: #754c24;
      }

      .cls-3 {
        fill: #666;
      }

      .cls-4 {
        fill: url(#Dark_Sky_Gradient);
      }

      .cls-5 {
        fill: #fff;
      }

      .cls-6 {
        fill: #8c6239;
      }

      .cls-7 {
        fill: #dccec5;
      }
    </style>
    <linearGradient id="Dark_Sky_Gradient" data-name="Dark Sky Gradient" x1="183.2" y1="0" x2="183.2" y2="700" gradientUnits="userSpaceOnUse">
      <stop offset="0" stop-color="#c8c5bc"/>
      <stop offset="1" stop-color="#000"/>
    </linearGradient>
  </defs>
  <rect id="background" class="cls-4" x=".89" width="364.61" height="700"/>
  <rect id="floor" class="cls-7" x=".89" y="447.96" width="365.5" height="252.04"/>
  <g id="backtable-1">
    <g>
      <path class="cls-1" d="M60.26,450.48c.05,2.77,.08,19.15,.13,21.91-1.95-1.06-3.47-2.09-5.42-3.52l-.3-16.23c1.77-.82,3.61-1.52,5.58-2.16Z"/>
      <path class="cls-6" d="M65.59,456.67c.01,2.2,.02,10.27,.01,12.47-1.72,1.42-2.06,1.37-5.2,3.26-.05-2.76-.08-19.14-.13-21.91-1.98,.64-3.81,1.34-5.58,2.16-2.2,1.01-4.31,2.19-6.47,3.6-.03,6.56,.05,13.88,.49,20.94-2.12,1.23-4.55,2.47-6.88,3.71-.12-6.56-.21-19.89-.33-26.45,4.17-1.66,18.9-9.02,23.42-12.07,.44,5.06,.64,8.35,.68,14.3Z"/>
      <path class="cls-2" d="M28.45,464.9c-1.56,1.39-3.23,2.54-4.79,3.93-.12-4.86-.2-10.81,.04-15.61,1.63,.25,3.12,.59,4.58,1.05,.14,3.15,.18,7.58,.17,10.64Z"/>
      <path class="cls-1" d="M64.9,442.37c-4.52,3.05-19.25,10.41-23.42,12.07-4.8-2.25-12.23-5.23-16.73-6.93,5.7-3.04,15.15-6.64,20.85-9.68,9.17,1.94,10.04,2.26,19.3,4.54Z"/>
      <path class="cls-1" d="M45.6,437.83c-5.7,3.04-15.15,6.64-20.85,9.68-.48-6.4,.7-25.59,1.45-31.97,.6-4.02,3.77-8.66,7.58-10.15,.96-.37,1.95-.44,2.91-.26h0c.24,.06,.48,.12,.72,.18,1.79,.55,3.41,1.9,4.45,3.57,.76,1.22,2.51,5.11,3.28,15.38,.17,3.86,.53,9.71,.45,13.58Z"/>
      <path class="cls-6" d="M41.48,454.44c.12,6.56,.21,19.89,.33,26.45-2.62-1.89-4.23-3.09-6.85-4.97,.12-5.8,.17-12.47,.06-18.62-2.43-1.37-4.55-2.34-6.73-3.03-1.46-.46-2.95-.8-4.58-1.05-.23,4.8-.15,10.75-.04,15.61-1.92-1.17-3.68-2.39-5.43-3.74-.05-6.27,.4-17.7,.52-23.7,.26-8.06,.12-19.71,2.13-27.66,.67-2.68,3.21-5.78,5.48-7.32,2.77-1.67,5.6-2.37,10.33-1.28-.96-.17-1.95-.11-2.91,.26-3.82,1.49-6.99,6.13-7.58,10.15-.75,6.38-1.93,25.56-1.45,31.97,4.51,1.7,11.93,4.68,16.73,6.93Z"/>
    </g>
    <g>
      <path class="cls-1" d="M119.46,451.85c-.09,2.77-.32,19.15-.4,21.91,1.96-1.04,3.5-2.05,5.46-3.45l.49-16.23c-1.76-.84-3.59-1.57-5.56-2.23Z"/>
      <path class="cls-6" d="M114.06,457.97c-.04,2.2-.15,10.27-.16,12.47,1.7,1.45,2.04,1.4,5.16,3.32,.08-2.76,.31-19.14,.4-21.91,1.97,.66,3.79,1.39,5.56,2.23,2.19,1.04,4.28,2.24,6.43,3.67-.05,6.56-.22,13.88-.74,20.93,2.11,1.26,4.52,2.53,6.84,3.79,.2-6.56,.46-19.88,.66-26.44-4.15-1.71-18.79-9.25-23.27-12.36-.51,5.06-.74,8.34-.86,14.29Z"/>
      <path class="cls-2" d="M151.09,466.66c1.54,1.41,3.2,2.58,4.74,3.99,.17-4.86,.33-10.8,.15-15.61-1.63,.23-3.13,.55-4.59,.99-.18,3.14-.27,7.58-.3,10.63Z"/>
      <path class="cls-1" d="M114.92,443.68c4.48,3.1,19.12,10.64,23.27,12.36,4.83-2.19,12.29-5.08,16.82-6.73-5.66-3.11-15.07-6.82-20.73-9.93-9.19,1.83-10.07,2.14-19.36,4.3Z"/>
      <path class="cls-1" d="M134.28,439.38c5.66,3.11,15.07,6.82,20.73,9.93,.56-6.4-.39-25.6-1.06-31.98-.55-4.03-3.66-8.71-7.46-10.25-.95-.39-1.94-.46-2.9-.3h0c-.24,.06-.48,.11-.72,.17-1.79,.53-3.43,1.86-4.49,3.52-.77,1.21-2.58,5.08-3.47,15.34-.22,3.86-.65,9.7-.62,13.57Z"/>
      <path class="cls-6" d="M138.19,456.04c-.2,6.56-.46,19.88-.66,26.44,2.65-1.85,4.26-3.04,6.91-4.89-.05-5.8-.02-12.48,.17-18.62,2.44-1.34,4.58-2.28,6.77-2.94,1.47-.44,2.96-.76,4.59-.99,.18,4.81,.02,10.75-.15,15.61,1.94-1.15,3.71-2.35,5.48-3.67,.13-6.27-.19-17.71-.23-23.71-.16-8.06,.12-19.71-1.79-27.68-.64-2.69-3.14-5.81-5.39-7.39-2.75-1.7-5.57-2.44-10.31-1.41,.96-.16,1.95-.09,2.9,.3,3.8,1.54,6.91,6.21,7.46,10.25,.68,6.39,1.62,25.58,1.06,31.98-4.53,1.65-11.99,4.54-16.82,6.73Z"/>
    </g>
    <g>
      <ellipse class="cls-5" cx="90.52" cy="414.57" rx="50.29" ry="12.42"/>
      <path class="cls-5" d="M140.81,414.57v10.19c0,6.15-18.13,11.26-41.91,12.25-2.73,.11-5.53,.17-8.38,.17s-5.67-.06-8.4-.17c-23.78-.99-41.89-6.09-41.89-12.25v-10.19c0,6.86,22.52,12.42,50.29,12.42s50.29-5.56,50.29-12.42Z"/>
      <path class="cls-3" d="M98.9,437.01v44.11s-1.98,3.07-8.38,3.07-8.4-3.07-8.4-3.07v-44.12c2.73,.12,5.54,.17,8.4,.17s5.66-.06,8.38-.17Z"/>
    </g>
  </g>
  <g id="backtable-2">
    <g>
      <path class="cls-1" d="M246.98,450.98c.05,2.77,.08,19.15,.13,21.91-1.95-1.06-3.47-2.09-5.42-3.52l-.3-16.23c1.77-.82,3.61-1.52,5.58-2.16Z"/>
      <path class="cls-6" d="M252.31,457.17c.01,2.2,.02,10.27,.01,12.47-1.72,1.42-2.06,1.37-5.2,3.26-.05-2.76-.08-19.14-.13-21.91-1.98,.64-3.81,1.34-5.58,2.16-2.2,1.01-4.31,2.19-6.47,3.6-.03,6.56,.05,13.88,.49,20.94-2.12,1.23-4.55,2.47-6.88,3.71-.12-6.56-.21-19.89-.33-26.45,4.17-1.66,18.9-9.02,23.42-12.07,.44,5.06,.64,8.35,.68,14.3Z"/>
      <path class="cls-2" d="M215.17,465.41c-1.56,1.39-3.23,2.54-4.79,3.93-.12-4.86-.2-10.81,.04-15.61,1.63,.25,3.12,.59,4.58,1.05,.14,3.15,.18,7.58,.17,10.64Z"/>
      <path class="cls-1" d="M251.62,442.88c-4.52,3.05-19.25,10.41-23.42,12.07-4.8-2.25-12.23-5.23-16.73-6.93,5.7-3.04,15.15-6.64,20.85-9.68,9.17,1.94,10.04,2.26,19.3,4.54Z"/>
      <path class="cls-1" d="M232.32,438.34c-5.7,3.04-15.15,6.64-20.85,9.68-.48-6.4,.7-25.59,1.45-31.97,.6-4.02,3.77-8.66,7.58-10.15,.96-.37,1.95-.44,2.91-.26h0c.24,.06,.48,.12,.72,.18,1.79,.55,3.41,1.9,4.45,3.57,.76,1.22,2.51,5.11,3.28,15.38,.17,3.86,.53,9.71,.45,13.58Z"/>
      <path class="cls-6" d="M228.2,454.95c.12,6.56,.21,19.89,.33,26.45-2.62-1.89-4.23-3.09-6.85-4.97,.12-5.8,.17-12.47,.06-18.62-2.43-1.37-4.55-2.34-6.73-3.03-1.46-.46-2.95-.8-4.58-1.05-.23,4.8-.15,10.75-.04,15.61-1.92-1.17-3.68-2.39-5.43-3.74-.05-6.27,.4-17.7,.52-23.7,.26-8.06,.12-19.71,2.13-27.66,.67-2.68,3.21-5.78,5.48-7.32,2.77-1.67,5.6-2.37,10.33-1.28-.96-.17-1.95-.11-2.91,.26-3.82,1.49-6.99,6.13-7.58,10.15-.75,6.38-1.93,25.56-1.45,31.97,4.51,1.7,11.93,4.68,16.73,6.93Z"/>
    </g>
    <g>
      <path class="cls-1" d="M306.18,452.36c-.09,2.77-.32,19.15-.4,21.91,1.96-1.04,3.5-2.05,5.46-3.45l.49-16.23c-1.76-.84-3.59-1.57-5.56-2.23Z"/>
      <path class="cls-6" d="M300.78,458.48c-.04,2.2-.15,10.27-.16,12.47,1.7,1.45,2.04,1.4,5.16,3.32,.08-2.76,.31-19.14,.4-21.91,1.97,.66,3.79,1.39,5.56,2.23,2.19,1.04,4.28,2.24,6.43,3.67-.05,6.56-.22,13.88-.74,20.93,2.11,1.26,4.52,2.53,6.84,3.79,.2-6.56,.46-19.88,.66-26.44-4.15-1.71-18.79-9.25-23.27-12.36-.51,5.06-.74,8.34-.86,14.29Z"/>
      <path class="cls-2" d="M337.81,467.17c1.54,1.41,3.2,2.58,4.74,3.99,.17-4.86,.33-10.8,.15-15.61-1.63,.23-3.13,.55-4.59,.99-.18,3.14-.27,7.58-.3,10.63Z"/>
      <path class="cls-1" d="M301.64,444.19c4.48,3.1,19.12,10.64,23.27,12.36,4.83-2.19,12.29-5.08,16.82-6.73-5.66-3.11-15.07-6.82-20.73-9.93-9.19,1.83-10.07,2.14-19.36,4.3Z"/>
      <path class="cls-1" d="M321,439.89c5.66,3.11,15.07,6.82,20.73,9.93,.56-6.4-.39-25.6-1.06-31.98-.55-4.03-3.66-8.71-7.46-10.25-.95-.39-1.94-.46-2.9-.3h0c-.24,.06-.48,.11-.72,.17-1.79,.53-3.43,1.86-4.49,3.52-.77,1.21-2.58,5.08-3.47,15.34-.22,3.86-.65,9.7-.62,13.57Z"/>
      <path class="cls-6" d="M324.91,456.55c-.2,6.56-.46,19.88-.66,26.44,2.65-1.85,4.26-3.04,6.91-4.89-.05-5.8-.02-12.48,.17-18.62,2.44-1.34,4.58-2.28,6.77-2.94,1.47-.44,2.96-.76,4.59-.99,.18,4.81,.02,10.75-.15,15.61,1.94-1.15,3.71-2.35,5.48-3.67,.13-6.27-.19-17.71-.23-23.71-.16-8.06,.12-19.71-1.79-27.68-.64-2.69-3.14-5.81-5.39-7.39-2.75-1.7-5.57-2.44-10.31-1.41,.96-.16,1.95-.09,2.9,.3,3.8,1.54,6.91,6.21,7.46,10.25,.68,6.39,1.62,25.58,1.06,31.98-4.53,1.65-11.99,4.54-16.82,6.73Z"/>
    </g>
    <g>
      <ellipse class="cls-5" cx="277.24" cy="415.08" rx="50.29" ry="12.42"/>
      <path class="cls-5" d="M327.53,415.08v10.19c0,6.15-18.13,11.26-41.91,12.25-2.73,.11-5.53,.17-8.38,.17s-5.67-.06-8.4-.17c-23.78-.99-41.89-6.09-41.89-12.25v-10.19c0,6.86,22.52,12.42,50.29,12.42s50.29-5.56,50.29-12.42Z"/>
      <path class="cls-3" d="M285.62,437.52v44.11s-1.98,3.07-8.38,3.07-8.4-3.07-8.4-3.07v-44.12c2.73,.12,5.54,.17,8.4,.17s5.66-.06,8.38-.17Z"/>
    </g>
  </g>
  <g id="table">
    <g>
      <path class="cls-1" d="M116.63,579.28c.12,6.2,.19,42.89,.3,49.08-4.36-2.38-7.78-4.68-12.15-7.88l-.66-36.36c3.97-1.83,8.08-3.41,12.5-4.84Z"/>
      <path class="cls-6" d="M128.55,593.14c.03,4.92,.05,23.01,.03,27.92-3.85,3.19-4.6,3.07-11.65,7.29-.11-6.19-.18-42.88-.3-49.08-4.42,1.43-8.54,3.01-12.5,4.84-4.93,2.26-9.65,4.9-14.5,8.05-.07,14.7,.11,31.09,1.09,46.91-4.75,2.76-10.19,5.54-15.42,8.31-.27-14.69-.48-44.55-.75-59.24,9.34-3.72,42.34-20.21,52.47-27.04,1,11.34,1.43,18.7,1.53,32.03Z"/>
      <path class="cls-2" d="M45.37,611.59c-3.49,3.11-7.23,5.68-10.72,8.8-.26-10.89-.44-24.21,.08-34.97,3.65,.55,6.98,1.31,10.26,2.34,.31,7.05,.4,16.98,.37,23.83Z"/>
      <path class="cls-1" d="M127.02,561.12c-10.13,6.83-43.12,23.32-52.47,27.04-10.75-5.05-27.39-11.71-37.48-15.53,12.76-6.8,33.95-14.87,46.7-21.67,20.53,4.35,22.49,5.07,43.24,10.17Z"/>
      <path class="cls-1" d="M83.78,550.95c-12.76,6.8-33.95,14.87-46.7,21.67-1.07-14.34,1.57-57.32,3.26-71.6,1.34-9.02,8.44-19.41,16.99-22.74,2.15-.84,4.36-.98,6.51-.59h.01c.53,.13,1.06,.26,1.62,.4,4,1.24,7.63,4.26,9.96,8,1.7,2.74,5.63,11.44,7.35,34.44,.39,8.65,1.2,21.74,1.01,30.42Z"/>
      <path class="cls-6" d="M74.55,588.15c.27,14.69,.48,44.55,.75,59.24-5.88-4.22-9.47-6.92-15.35-11.14,.26-13,.38-27.94,.13-41.71-5.44-3.06-10.2-5.24-15.09-6.78-3.28-1.03-6.61-1.79-10.26-2.34-.52,10.76-.34,24.08-.08,34.97-4.31-2.62-8.24-5.36-12.16-8.38-.12-14.04,.9-39.65,1.16-53.09,.57-18.06,.28-44.16,4.78-61.95,1.51-6.01,7.18-12.94,12.27-16.4,6.21-3.73,12.54-5.31,23.14-2.87-2.15-.39-4.37-.25-6.51,.59-8.55,3.34-15.65,13.73-16.99,22.74-1.69,14.28-4.33,57.26-3.26,71.6,10.09,3.82,26.72,10.49,37.48,15.53Z"/>
    </g>
    <g>
      <path class="cls-1" d="M249.22,582.35c-.2,6.2-.71,42.89-.9,49.08,4.39-2.33,7.83-4.58,12.24-7.73l1.11-36.35c-3.94-1.88-8.04-3.51-12.44-4.99Z"/>
      <path class="cls-6" d="M237.13,596.07c-.09,4.92-.33,23.01-.37,27.92,3.81,3.24,4.57,3.13,11.56,7.43,.19-6.19,.7-42.88,.9-49.08,4.41,1.48,8.5,3.11,12.44,4.99,4.9,2.32,9.59,5.01,14.4,8.23-.11,14.7-.48,31.09-1.67,46.89,4.72,2.81,10.12,5.66,15.32,8.5,.45-14.68,1.02-44.54,1.47-59.22-9.3-3.83-42.09-20.73-52.13-27.68-1.13,11.33-1.66,18.68-1.92,32.01Z"/>
      <path class="cls-2" d="M320.08,615.53c3.46,3.16,7.16,5.77,10.61,8.93,.39-10.88,.74-24.2,.34-34.97-3.66,.51-7,1.23-10.29,2.22-.39,7.04-.61,16.97-.66,23.82Z"/>
      <path class="cls-1" d="M239.05,564.06c10.04,6.95,42.84,23.84,52.13,27.68,10.81-4.91,27.53-11.38,37.67-15.07-12.67-6.96-33.76-15.28-46.44-22.24-20.58,4.1-22.55,4.8-43.36,9.64Z"/>
      <path class="cls-1" d="M282.42,554.42c12.67,6.96,33.76,15.28,46.44,22.24,1.25-14.33-.87-57.33-2.38-71.64-1.23-9.03-8.2-19.51-16.71-22.95-2.13-.87-4.35-1.03-6.5-.67h-.01c-.53,.12-1.07,.25-1.62,.38-4.02,1.19-7.68,4.17-10.05,7.88-1.73,2.72-5.77,11.37-7.77,34.35-.49,8.65-1.46,21.73-1.38,30.4Z"/>
      <path class="cls-6" d="M291.19,591.74c-.45,14.68-1.02,44.54-1.47,59.22,5.93-4.15,9.55-6.8,15.48-10.95-.11-13-.04-27.94,.38-41.71,5.47-2.99,10.26-5.11,15.17-6.59,3.29-.99,6.64-1.71,10.29-2.22,.39,10.77,.05,24.08-.34,34.97,4.34-2.57,8.3-5.26,12.27-8.23,.29-14.04-.41-39.66-.51-53.1-.35-18.06,.26-44.16-4.02-62.01-1.44-6.03-7.03-13.02-12.07-16.55-6.17-3.81-12.47-5.46-23.1-3.15,2.15-.36,4.37-.2,6.5,.67,8.51,3.44,15.48,13.92,16.71,22.95,1.52,14.3,3.63,57.31,2.38,71.64-10.14,3.69-26.85,10.16-37.67,15.07Z"/>
    </g>
    <g>
      <ellipse class="cls-5" cx="184.39" cy="498.85" rx="112.65" ry="27.82"/>
      <path class="cls-5" d="M297.04,498.85v22.83c0,13.78-40.6,25.23-93.87,27.44-6.11,.25-12.38,.38-18.78,.38s-12.69-.13-18.81-.39c-53.26-2.21-93.84-13.65-93.84-27.43v-22.83c0,15.36,50.44,27.82,112.65,27.82s112.65-12.46,112.65-27.82Z"/>
      <path class="cls-3" d="M203.17,549.12v98.81s-4.43,6.87-18.78,6.87-18.81-6.87-18.81-6.87v-98.82c6.12,.26,12.4,.39,18.81,.39s12.67-.13,18.78-.38Z"/>
    </g>
  </g>
</svg>