<?xml version="1.0" encoding="UTF-8"?>
<svg id="shop" xmlns="http://www.w3.org/2000/svg" xmlns:xlink="http://www.w3.org/1999/xlink" viewBox="0 0 1024 700">
  <defs>
    <style>
      .cls-1 {
        fill: none;
      }

      .cls-1, .cls-2, .cls-3, .cls-4, .cls-5, .cls-6, .cls-7, .cls-8 {
        stroke: #000;
        stroke-miterlimit: 10;
      }

      .cls-2 {
        fill: gray;
      }

      .cls-3 {
        fill: #999;
      }

      .cls-9 {
        fill: #e6e6e6;
      }

      .cls-4 {
        fill: #666;
      }

      .cls-5 {
        fill: #b3b3b3;
      }

      .cls-6 {
        fill: url(#linear-gradient);
      }

      .cls-7 {
        fill: url(#linear-gradient-2);
      }

      .cls-8 {
        fill: #dccec5;
      }
    </style>
    <linearGradient id="linear-gradient" x1="511.71" y1="0" x2="511.71" y2="496" gradientUnits="userSpaceOnUse">
      <stop offset="0" stop-color="#c8c5bc"/>
      <stop offset="1" stop-color="#000"/>
    </linearGradient>
    <linearGradient id="linear-gradient-2" x1="512.29" y1="80.42" x2="512.29" y2="576.42" gradientUnits="userSpaceOnUse">
      <stop offset="0" stop-color="#a67c52"/>
      <stop offset=".41" stop-color="#9f754b"/>
      <stop offset="1" stop-color="#8c6239"/>
      <stop offset="1" stop-color="#8c6239"/>
    </linearGradient>
  </defs>
  <rect id="background" class="cls-6" x="-.29" width="1024" height="496"/>
  <rect id="backdrop" class="cls-7" x=".29" y="80.42" width="1024" height="496"/>
  <rect id="floor" class="cls-8" x=".29" y="576.42" width="1023.17" height="123.58"/>
  <g id="shelves">
    <rect class="cls-4" x="321.88" y="140.77" width="42.82" height="447.65"/>
    <rect class="cls-4" x="659.88" y="140.77" width="42.82" height="447.65"/>
    <rect class="cls-4" x=".29" y="140.77" width="27.25" height="447.65"/>
    <rect class="cls-4" x="996.04" y="140.77" width="27.25" height="447.65"/>
    <g>
      <rect class="cls-2" x=".29" y="576.42" width="1023.17" height="24"/>
      <polygon class="cls-3" points="1023.46 576.42 .29 576.42 16.86 563.92 343.29 563.92 343.29 563.42 680.96 563.42 680.96 562.92 1007.67 562.92 1023.46 576.42"/>
      <polygon class="cls-3" points=".29 563.92 16.79 563.92 .29 576.42 .29 563.92"/>
    </g>
    <polygon class="cls-3" points="1023.29 562.9 1008.45 562.92 1023.29 576.42 1023.29 562.9"/>
    <g>
      <rect class="cls-2" x=".21" y="475.5" width="1023.17" height="24"/>
      <polygon class="cls-3" points="1023.38 475.5 .21 475.5 16.77 463 343.21 463 343.21 462.5 680.88 462.5 680.88 462 1007.59 462 1023.38 475.5"/>
      <polygon class="cls-3" points=".21 463 16.71 463 .21 475.5 .21 463"/>
    </g>
    <polygon class="cls-3" points="1023.21 461.98 1008.36 462 1023.21 475.5 1023.21 461.98"/>
    <g>
      <rect class="cls-2" x=".21" y="374.05" width="1023.17" height="24"/>
      <polygon class="cls-3" points="1023.38 374.05 .21 374.05 16.77 361.55 343.21 361.55 343.21 361.05 680.88 361.05 680.88 360.55 1007.59 360.55 1023.38 374.05"/>
      <polygon class="cls-3" points=".21 361.55 16.71 361.55 .21 374.05 .21 361.55"/>
    </g>
    <polygon class="cls-3" points="1023.21 360.53 1008.36 360.55 1023.21 374.05 1023.21 360.53"/>
    <g>
      <rect class="cls-2" x=".21" y="272.61" width="1023.17" height="24"/>
      <polygon class="cls-3" points="1023.38 272.61 .21 272.61 16.77 260.11 343.21 260.11 343.21 259.61 680.88 259.61 680.88 259.11 1007.59 259.11 1023.38 272.61"/>
      <polygon class="cls-3" points=".21 260.11 16.71 260.11 .21 272.61 .21 260.11"/>
    </g>
    <polygon class="cls-3" points="1023.21 259.09 1008.36 259.11 1023.21 272.61 1023.21 259.09"/>
    <rect class="cls-2" x="668.96" y="154.42" width="24" height="460"/>
    <rect class="cls-2" x=".29" y="154.42" width="12" height="460"/>
    <rect class="cls-2" x="331.62" y="154.42" width="24" height="460"/>
    <rect class="cls-2" x="1011.29" y="154.42" width="12" height="460"/>
  </g>
  <g id="cart">
    <g>
      <path d="M147.36,655.16c0,17.7-14.35,32.06-32.06,32.06s-32.06-14.36-32.06-32.06c0-10.62,5.16-20.04,13.12-25.87l12.73,27.01c2.47,5.26,9.95,5.26,12.42,0l12.73-27.01c7.96,5.83,13.12,15.25,13.12,25.87Z"/>
      <path class="cls-9" d="M140.47,655.83c0,13.9-11.27,25.17-25.17,25.17s-25.17-11.27-25.17-25.17c0-8.34,4.05-15.73,10.3-20.31l9.99,21.2c1.94,4.13,7.81,4.13,9.75,0l9.99-21.2c6.25,4.58,10.3,11.97,10.3,20.31Z"/>
      <path class="cls-5" d="M138.76,619.7l-4.52,9.59-12.73,27.01c-2.47,5.26-9.95,5.26-12.42,0l-12.73-27.01-4.52-9.59h46.92Z"/>
    </g>
    <g>
      <path d="M330.07,655.16c0,17.7-14.35,32.06-32.06,32.06s-32.06-14.36-32.06-32.06c0-10.62,5.17-20.04,13.12-25.87l12.73,27.01c2.47,5.26,9.95,5.26,12.43,0l12.72-27c7.96,5.82,13.12,15.24,13.12,25.86Z"/>
      <path class="cls-9" d="M323.18,655.83c0,13.9-11.27,25.17-25.17,25.17s-25.17-11.27-25.17-25.17c0-8.34,4.05-15.73,10.3-20.31l9.99,21.2c1.94,4.13,7.81,4.13,9.75,0l9.99-21.2c6.25,4.58,10.3,11.97,10.3,20.31Z"/>
      <path class="cls-5" d="M321.47,619.7l-4.52,9.6-12.72,27c-2.48,5.26-9.96,5.26-12.43,0l-12.73-27.01-4.52-9.59h46.92Z"/>
    </g>
    <polygon class="cls-5" points="334.87 438.96 334.13 553.04 183.87 554.2 87.65 554.95 71.53 425.02 334.87 438.96"/>
    <g>
      <path class="cls-1" d="M182.61,619.7c-4.53,0-8.72-.1-12.28-3.96-2.46-2.67-3.37-6.67-1.23-11.18,2.25-4.74,20.78-36.36,22.82-40.64,1.46-3.07-.9-9.8-8.97-9.74"/>
      <path class="cls-1" d="M87.65,554.95c-7.19,12.9-19.77,38.38-21.73,43.2-1.95,4.83-3.33,11.49-.71,15.95,2.61,4.47,6.16,5.6,10.44,5.6h16.19"/>
      <line class="cls-1" x1="347.77" y1="619.7" x2="321.47" y2="619.7"/>
      <polyline class="cls-1" points="274.55 619.7 182.61 619.7 138.76 619.7"/>
      <path class="cls-1" d="M30.13,400.46c5.56,0,9.36,0,14.77,.52,4.46,.43,9.62,1.32,13.55,3.59,7.16,4.14,10.38,12.85,13.08,20.95"/>
    </g>
  </g>
</svg>