<?xml version="1.0" encoding="UTF-8" standalone="no"?>
<svg
   id="dining"
   viewBox="0 0 365.5 700"
   version="1.1"
   sodipodi:docname="COVIDImpact_Drawings-04.svg"
   inkscape:version="1.1.1 (3bf5ae0d25, 2021-09-20)"
   xmlns:inkscape="http://www.inkscape.org/namespaces/inkscape"
   xmlns:sodipodi="http://sodipodi.sourceforge.net/DTD/sodipodi-0.dtd"
   xmlns:xlink="http://www.w3.org/1999/xlink"
   xmlns="http://www.w3.org/2000/svg"
   xmlns:svg="http://www.w3.org/2000/svg">
  <sodipodi:namedview
     id="namedview125"
     pagecolor="#505050"
     bordercolor="#eeeeee"
     borderopacity="1"
     inkscape:pageshadow="0"
     inkscape:pageopacity="0"
     inkscape:pagecheckerboard="0"
     showgrid="false"
     inkscape:zoom="0.84044692"
     inkscape:cx="77.339804"
     inkscape:cy="346.83928"
     inkscape:window-width="1920"
     inkscape:window-height="1017"
     inkscape:window-x="-8"
     inkscape:window-y="-8"
     inkscape:window-maximized="1"
     inkscape:current-layer="dining" />
  <defs>
    <style>
      .dining--1 {
        fill: #a67c52;
      }

      .dining--1, .dining--2, .dining--3, .dining--4, .dining--5, .dining--6, .dining--7 {
        stroke: #000;
        stroke-miterlimit: 10;
      }

      .dining--2 {
        fill: #754c24;
      }

      .dining--3 {
        fill: #666;
      }

      .dining--4 {
        fill: url(#Dark_Sky_Gradient);
      }

      .dining--5 {
        fill: #fff;
      }

      .dining--6 {
        fill: #8c6239;
      }

      .dining--7 {
        fill: #dccec5;
      }
    </style>
    <linearGradient
       id="Dark_Sky_Gradient"
       data-name="Dark Sky Gradient"
       x1="183.2"
       y1="0"
       x2="183.2"
       y2="700"
       gradientUnits="userSpaceOnUse"
       gradientTransform="matrix(1.002441,0,0,1,-0.89217248,0)">
      <stop
         offset="0"
         stop-color="#c8c5bc"
         id="stop4" />
      <stop
         offset="1"
         stop-color="#000"
         id="stop6" />
    </linearGradient>
  </defs>
  <rect
     id="background"
     class="dining--4"
     x="0"
     width="365.5"
     height="700"
     style="fill:url(#Dark_Sky_Gradient);stroke:none;stroke-width:1.00122"
     y="0" />
  <rect
     id="floor"
     class="dining--7"
     x="0"
     y="447.95999"
     width="365.5"
     height="252.03999"
     style="stroke:none" />
  <use
     x="0"
     y="0"
     xlink:href="#table"
     id="use1049"
     transform="matrix(0.46261747,0,-0.00150826,0.47981393,188.25322,179.11571)"
     width="100%"
     height="100%" />
  <use
     x="0"
     y="0"
     xlink:href="#table"
     id="use1303"
     transform="matrix(0.46551887,0,0.00626103,0.48282318,5.8924493,177.02571)"
     width="100%"
     height="100%" />
  <g
     id="table">
    <g
       id="g99"
       style="stroke:#000000;stroke-opacity:1;stroke-linejoin:round;stroke-linecap:round">
      <path
         class="dining--1"
         d="M116.63,579.28c.12,6.2,.19,42.89,.3,49.08-4.36-2.38-7.78-4.68-12.15-7.88l-.66-36.36c3.97-1.83,8.08-3.41,12.5-4.84Z"
         id="path87"
         style="stroke:#000000;stroke-opacity:1;stroke-linejoin:round;stroke-linecap:round" />
      <path
         class="dining--6"
         d="M128.55,593.14c.03,4.92,.05,23.01,.03,27.92-3.85,3.19-4.6,3.07-11.65,7.29-.11-6.19-.18-42.88-.3-49.08-4.42,1.43-8.54,3.01-12.5,4.84-4.93,2.26-9.65,4.9-14.5,8.05-.07,14.7,.11,31.09,1.09,46.91-4.75,2.76-10.19,5.54-15.42,8.31-.27-14.69-.48-44.55-.75-59.24,9.34-3.72,42.34-20.21,52.47-27.04,1,11.34,1.43,18.7,1.53,32.03Z"
         id="path89"
         style="stroke:#000000;stroke-opacity:1;stroke-linejoin:round;stroke-linecap:round" />
      <path
         class="dining--2"
         d="M45.37,611.59c-3.49,3.11-7.23,5.68-10.72,8.8-.26-10.89-.44-24.21,.08-34.97,3.65,.55,6.98,1.31,10.26,2.34,.31,7.05,.4,16.98,.37,23.83Z"
         id="path91"
         style="stroke:#000000;stroke-opacity:1;stroke-linejoin:round;stroke-linecap:round" />
      <path
         class="dining--1"
         d="M127.02,561.12c-10.13,6.83-43.12,23.32-52.47,27.04-10.75-5.05-27.39-11.71-37.48-15.53,12.76-6.8,33.95-14.87,46.7-21.67,20.53,4.35,22.49,5.07,43.24,10.17Z"
         id="path93"
         style="stroke:#000000;stroke-opacity:1;stroke-linejoin:round;stroke-linecap:round" />
      <path
         class="dining--1"
         d="M83.78,550.95c-12.76,6.8-33.95,14.87-46.7,21.67-1.07-14.34,1.57-57.32,3.26-71.6,1.34-9.02,8.44-19.41,16.99-22.74,2.15-.84,4.36-.98,6.51-.59h.01c.53,.13,1.06,.26,1.62,.4,4,1.24,7.63,4.26,9.96,8,1.7,2.74,5.63,11.44,7.35,34.44,.39,8.65,1.2,21.74,1.01,30.42Z"
         id="path95"
         style="stroke:#000000;stroke-opacity:1;stroke-linejoin:round;stroke-linecap:round" />
      <path
         class="dining--6"
         d="M74.55,588.15c.27,14.69,.48,44.55,.75,59.24-5.88-4.22-9.47-6.92-15.35-11.14,.26-13,.38-27.94,.13-41.71-5.44-3.06-10.2-5.24-15.09-6.78-3.28-1.03-6.61-1.79-10.26-2.34-.52,10.76-.34,24.08-.08,34.97-4.31-2.62-8.24-5.36-12.16-8.38-.12-14.04,.9-39.65,1.16-53.09,.57-18.06,.28-44.16,4.78-61.95,1.51-6.01,7.18-12.94,12.27-16.4,6.21-3.73,12.54-5.31,23.14-2.87-2.15-.39-4.37-.25-6.51,.59-8.55,3.34-15.65,13.73-16.99,22.74-1.69,14.28-4.33,57.26-3.26,71.6,10.09,3.82,26.72,10.49,37.48,15.53Z"
         id="path97"
         style="stroke:#000000;stroke-opacity:1;stroke-linejoin:round;stroke-linecap:round" />
    </g>
    <use
       x="0"
       y="0"
       xlink:href="#g99"
       id="use1221"
       transform="matrix(-0.9999814,0.00609887,0.00609887,0.9999814,364.76746,0.25296145)"
       width="100%"
       height="100%" />
    <g
       id="g121">
      <ellipse
         class="dining--5"
         cx="184.39"
         cy="498.85"
         rx="112.65"
         ry="27.82"
         id="ellipse115" />
      <path
         class="dining--5"
         d="M297.04,498.85v22.83c0,13.78-40.6,25.23-93.87,27.44-6.11,.25-12.38,.38-18.78,.38s-12.69-.13-18.81-.39c-53.26-2.21-93.84-13.65-93.84-27.43v-22.83c0,15.36,50.44,27.82,112.65,27.82s112.65-12.46,112.65-27.82Z"
         id="path117" />
      <path
         class="dining--3"
         d="M203.17,549.12v98.81s-4.43,6.87-18.78,6.87-18.81-6.87-18.81-6.87v-98.82c6.12,.26,12.4,.39,18.81,.39s12.67-.13,18.78-.38Z"
         id="path119" />
    </g>
  </g>
</svg>
