<?xml version="1.0" encoding="UTF-8" standalone="no"?>
<svg
   id="sailboat"
   viewBox="0 0 775 775"
   version="1.1"
   sodipodi:docname="sailboat.svg"
   inkscape:version="1.1.1 (3bf5ae0d25, 2021-09-20)"
   width="775"
   height="775"
   xmlns:inkscape="http://www.inkscape.org/namespaces/inkscape"
   xmlns:sodipodi="http://sodipodi.sourceforge.net/DTD/sodipodi-0.dtd"
   xmlns="http://www.w3.org/2000/svg"
   xmlns:svg="http://www.w3.org/2000/svg">
  <defs
     id="defs35" />
  <sodipodi:namedview
     id="namedview33"
     pagecolor="#505050"
     bordercolor="#eeeeee"
     borderopacity="1"
     inkscape:pageshadow="0"
     inkscape:pageopacity="0"
     inkscape:pagecheckerboard="0"
     showgrid="false"
     inkscape:zoom="0.70710678"
     inkscape:cx="404.46508"
     inkscape:cy="406.5864"
     inkscape:window-width="1920"
     inkscape:window-height="1017"
     inkscape:window-x="-8"
     inkscape:window-y="-8"
     inkscape:window-maximized="1"
     inkscape:current-layer="sailboat" />
  <g
     id="g1007">
    <path
       d="m 582.76767,507.04726 c 55.86459,-11.18906 98.6349,-13.5625 154.17656,2.89011 v 0 C 672.08642,391.28164 607.82601,272.56133 544.93799,152.79154 c 17.13073,35.81146 35.79531,74.25469 45.36979,112.77865 19.5526,78.77551 6.36146,161.52291 -7.52396,241.47707 z"
       id="path3"
       style="fill:#3a349c;stroke:#3a349c;stroke-width:1.61458;stroke-linejoin:round;paint-order:stroke markers fill" />
    <path
       d="M 522.2208,541.05039 C 407.95674,536.99778 287.46039,520.85195 177.83018,488.38268 329.03591,365.93268 437.29372,190.70196 486.21559,2.3931077 c 17.76042,75.8854153 19.375,138.8541623 25.83334,216.3541623 6.34531,76.04687 5.19895,220.92343 10.17187,322.30312 z"
       id="path5"
       style="fill:#3a349c;stroke:#3a349c;stroke-width:1.61458;stroke-linejoin:round;paint-order:stroke markers fill" />
  </g>
  <g
     id="g1453">
    <path
       d="m 762.80986,557.18008 c -8.62188,-15.74219 -17.24375,-31.50052 -25.84948,-47.24271"
       id="path9"
       style="fill:none;stroke:#3a349c;stroke-width:1.61458;stroke-linecap:round" />
    <path
       d="m 582.76767,507.04726 c -16.48489,23.55677 -31.45208,51.61823 -38.74999,79.4375"
       id="path11"
       style="fill:none;stroke:#3a349c;stroke-width:1.61458;stroke-linecap:round" />
    <path
       d="m 147.7182,508.30664 c -28.62656,33.08281 -57.25312,66.08489 -85.879681,99.16771"
       id="path13"
       style="fill:none;stroke:#3a349c;stroke-width:1.61458;stroke-linecap:round" />
  </g>
  <g
     id="g1407">
    <path
       d="m 523.06038,559.03685 c -128.71458,-6.5875 -257.68749,-24.4125 -383.41509,-52.68386 -2.98698,-4.40781 -4.79531,-16.21041 -0.50052,-16.80781 125.74374,28.2875 254.3776,44.90156 383.07603,51.50521"
       id="path17"
       sodipodi:nodetypes="cccc"
       style="fill:#004f9d;stroke-width:1.61458" />
    <path
       d="m 525.41768,601.0806 c -10.4948,-168.74011 -8.25053,-342.09791 5.3927,-510.611973 5.68334,-3.697396 14.85417,-4.876042 18.56771,0.807291 C 535.7833,259.17644 534.29788,430.27383 544.80882,599.33685"
       id="path19"
       style="fill:#004f9d;stroke-width:1.61458" />
    <path
       d="m 544.03382,586.50091 c 72.2526,-12.51302 147.73437,-22.31354 220.72968,-29.32083 2.51875,1.69531 2.85782,5.47343 1.59844,8.23437 -72.99531,6.99115 -149.51041,16.90469 -221.76301,29.41771"
       id="path21"
       style="fill:#004f9d;stroke-width:1.61458" />
  </g>
  <path
     class="boat"
     d="m 95.551044,710.38793 c -33.712502,-23.137 -50.665627,-60.24011 -53.313542,-105.38387 96.439058,13.23958 194.331248,11.07604 291.609908,7.21719 133.91354,-5.31197 262.70885,-13.12656 394.34583,-38.23333 -5.02135,48.34063 -34.16458,103.89844 -59.65886,136.40001"
     style="fill:#3e79b8;"
     id="path25" />
  <g
     id="g1361">
    <path
       id="head"
       d="m 673.95856,775.09496 c 82.9029,-10.12019 101.0414,-93.86645 101.0414,-93.86645 -43.75521,-3.93958 -71.34943,-21.99062 -104.51298,-50.81094 -8.4927,15.01563 -18.40625,29.51459 -31.61354,40.59063 -13.20729,11.09219 -47.6625,18.55156 -64.8901,17.84114 v 86.05571"
       sodipodi:nodetypes="cccccc"
       style="fill:#3533ad;stroke-width:1.61458" />
    <path
       id="mid-1"
       d="m 357.11351,775 v -68.45482 c -25.33281,0.7427 -57.04809,0.47883 -80.45954,-9.22481 -23.41146,-9.70365 -35.31892,-22.29252 -18.83978,-52.75197 -23.66447,5.07466 -45.39963,35.44917 -63.41838,43.92574 -18.01875,8.47656 -39.96094,8.1052 -57.68906,-0.95261 V 775"
       sodipodi:nodetypes="ccscscc"
       style="fill:#3533ad;stroke-width:1.61458" />
    <path
       id="mid-2"
       d="m 508.4807,775.00808 v -72.66082 c -24.20261,3.875 -55.72591,7.15792 -78.74987,-1.22177 -23.0401,-8.36354 -50.62306,-25.29816 -44.18484,-54.42304 -20.46717,13.80316 -25.26789,29.66616 -45.27258,41.50106 -11.30208,6.68438 -23.31458,12.62604 -36.26354,14.82187 -12.94896,2.19584 -24.83428,2.48448 -37.5875,-2.30753 v 74.27408"
       sodipodi:nodetypes="cccccscc"
       style="fill:#3533ad;stroke-width:1.61458" />
    <path
       id="mid-3"
       d="m 647.18934,774.99193 v -81.28269 c -6.29688,3.47135 -18.8099,4.56927 -27.57708,3.81042 -42.99636,-3.74584 -89.07657,-22.05521 -107.3375,-61.14427 -24.57396,34.69739 -64.56719,58.04427 -106.86927,62.38749 v 76.2452"
       sodipodi:nodetypes="cccccc"
       style="fill:#3533ad;stroke-width:1.61458" />
    <path
       id="tail"
       d="m 230.02966,775 v -95.06316 c -42.85104,19.01979 -112.87552,14.09532 -136.46458,-29.78906 -12.868229,14.07917 -20.489062,30.24115 -43.642186,37.50677 -10.946875,3.43906 -29.772916,5.40886 -49.922915852,-1.11406 0,0 7.864667552,86.4588 105.360371852,88.45951"
       sodipodi:nodetypes="cccccc"
       style="fill:#3533ad;stroke-width:1.61458" />
  </g>
</svg>
